<?xml version="1.0" standalone="yes"?>
<svg xmlns="http://www.w3.org/2000/svg" width="500" height="500">
<path style="fill:#fefefe; stroke:none;" d="M0 0L0 500L500 500L500 0L0 0z"/>
<path style="fill:#fffef5; stroke:none;" d="M144 108L144 111L266 111C262.587 107.515 258.661 108 254 108L234 108L144 108z"/>
<path style="fill:#fff9c3; stroke:none;" d="M144 111C147.959 112.661 152.74 112 157 112L182 112L268 112C264.041 110.339 259.26 111 255 111L230 111L144 111z"/>
<path style="fill:#ffffdd; stroke:none;" d="M268 111C271.697 112.552 276.017 112 280 112C276.303 110.448 271.983 111 268 111z"/>
<path style="fill:#fffaa9; stroke:none;" d="M140 112C138.444 113.988 137.086 115.729 136 118C138.648 116.261 140.378 114.719 142 112L140 112z"/>
<path style="fill:#f4e03e; stroke:none;" d="M141 374C136.476 364.25 137 355.63 137 345L137 311L137 176L137 132C137 125.36 136.434 118.189 144 116L144 113L160 113C157.39 111.905 154.837 112.004 152 112C148.533 111.995 144.498 111.461 141.443 113.434C136.232 116.799 136.009 122.425 136 128L136 154L136 313L136 357C136 363.354 134.807 370.307 141 374z"/>
<path style="fill:#f6d64c; stroke:none;" d="M160 112C163.699 113.552 168.017 113 172 113L195 113L276 113C272.301 111.448 267.983 112 264 112L241 112L160 112z"/>
<path style="fill:#f8ec7c; stroke:none;" d="M276 112C277.506 112.683 278.315 112.826 280 113C278.494 112.317 277.685 112.174 276 112z"/>
<path style="fill:#fff8af; stroke:none;" d="M280 112C282.332 112.985 284.457 112.981 287 113C284.668 112.015 282.543 112.019 280 112z"/>
<path style="fill:#ffe026; stroke:none;" d="M144 113L144 116C140.934 116.497 139.968 117.036 139 120C142.82 122.102 142.67 127.86 142.94 132C143.651 142.908 143 154.068 143 165L143 302L143 341C143 345.561 141.686 352.446 147 354L147 177L147 140C147 135.82 145.743 128.968 148.179 125.318C150.213 122.27 154.842 123.002 158 123L157 120C158.797 120 158.521 119.986 160 119C156.837 117.673 153.414 118 150 118L150 114C155.518 114.016 160.556 115.825 166 115.985C195.943 116.863 226.043 116 256 116L256 114L144 113z"/>
<path style="fill:#fedf2d; stroke:none;" d="M160 113C167.879 116.306 180.466 114 189 114L256 114L256 116C226.376 116 196.61 116.853 167 115.985C161.229 115.815 155.864 114.004 150 114L150 118L256 117L256 120L272 120L272 122L161 122C165.969 124.085 172.65 123 178 123L213 123C233.724 123 255.372 121.186 276 123.104C292.477 124.636 308.238 129.277 325 128C324.402 126.805 324.534 127.023 323 126L331 127C326.866 123.061 321.432 122.204 316.17 120.521C305.02 116.954 294.737 115.016 283 113.925C266.747 112.414 250.335 113 234 113L160 113z"/>
<path style="fill:#f1d96a; stroke:none;" d="M279 113C281.89 114.213 284.874 113.998 288 114C285.11 112.787 282.126 113.002 279 113z"/>
<path style="fill:#fffdbb; stroke:none;" d="M288 113C289.769 113.779 291.036 113.912 293 114C291.231 113.221 289.964 113.088 288 113z"/>
<path style="fill:#f1e250; stroke:none;" d="M288 114C290.613 115.098 293.164 114.993 296 115C293.387 113.902 290.836 114.007 288 114z"/>
<path style="fill:#fff38d; stroke:none;" d="M296.667 114.333C296.222 114.778 297.278 114.722 297.333 114.667C297.778 114.222 296.722 114.278 296.667 114.333z"/>
<path style="fill:#ffffd6; stroke:none;" d="M298 114C299.769 114.779 301.036 114.912 303 115C301.231 114.221 299.964 114.088 298 114z"/>
<path style="fill:#ffeda7; stroke:none;" d="M299 115C300.769 115.779 302.036 115.912 304 116C302.231 115.221 300.964 115.088 299 115z"/>
<path style="fill:#fce957; stroke:none;" d="M302 116C303.769 116.779 305.036 116.912 307 117C305.231 116.221 303.964 116.088 302 116z"/>
<path style="fill:#fff9a9; stroke:none;" d="M307.667 116.333C307.222 116.778 308.278 116.722 308.333 116.667C308.778 116.222 307.722 116.278 307.667 116.333z"/>
<path style="fill:#fedf2f; stroke:none;" d="M157 120L157 122C160.961 122.858 164.938 122.02 169 122.001L193 122L272 122L272 120L256 120L256 117L190 117C179.192 117 166.859 115.044 157 120z"/>
<path style="fill:#fde37d; stroke:none;" d="M308.667 117.333C308.222 117.778 309.278 117.722 309.333 117.667C309.778 117.222 308.722 117.278 308.667 117.333z"/>
<path style="fill:#ffedb8; stroke:none;" d="M310.667 117.333C310.222 117.778 311.278 117.722 311.333 117.667C311.778 117.222 310.722 117.278 310.667 117.333z"/>
<path style="fill:#f7e883; stroke:none;" d="M136.333 118.667C136.278 118.722 136.222 119.778 136.667 119.333C136.722 119.278 136.778 118.222 136.333 118.667z"/>
<path style="fill:#ffde2d; stroke:none;" d="M138 118C136.414 126.541 137 135.342 137 144L137 184L137 310L137 355C137 361.855 136.222 369.293 141.61 374.566C146.234 379.093 157.035 377 163 377C181.709 377 200.36 376.385 219 376C217.231 375.221 215.964 375.088 214 375C214.714 370.973 213.743 367.083 214 363C212.745 364.75 212.386 365.857 212 368C198.024 364.673 181.341 367.001 167 367C162.284 367 152.215 368.018 148.603 364.397C146.18 361.967 147 357.116 147 354C141.89 350.873 143 344.341 143 339L143 297C143 237.997 142.488 178.921 142 120L138 118z"/>
<path style="fill:#fcef7d; stroke:none;" d="M312.667 118.333C312.222 118.778 313.278 118.722 313.333 118.667C313.778 118.222 312.722 118.278 312.667 118.333z"/>
<path style="fill:#ffffbe; stroke:none;" d="M314.667 118.333C314.222 118.778 315.278 118.722 315.333 118.667C315.778 118.222 314.722 118.278 314.667 118.333z"/>
<path style="fill:#efde4c; stroke:none;" d="M314 119C315.734 121.003 317.355 120.923 320 121C317.987 119.775 316.341 119.355 314 119z"/>
<path style="fill:#ffffc5; stroke:none;" d="M134 120L134 310L134 355C134 362.269 132.656 369.167 139 374C131.091 354.785 135 329.775 135 309L135 178L135 139C135 133.113 136.292 125.463 134 120z"/>
<path style="fill:#f4e783; stroke:none;" d="M135 120L135 126C135.951 123.715 135.951 122.285 135 120z"/>
<path style="fill:#fffdb4; stroke:none;" d="M320 120C321.248 120.685 321.548 120.749 323 121C321.752 120.315 321.452 120.251 320 120z"/>
<path style="fill:#ffec89; stroke:none;" d="M321.667 121.333C321.222 121.778 322.278 121.722 322.333 121.667C322.778 121.222 321.722 121.278 321.667 121.333z"/>
<path style="fill:#fffdce; stroke:none;" d="M323.667 121.333C323.222 121.778 324.278 121.722 324.333 121.667C324.778 121.222 323.722 121.278 323.667 121.333z"/>
<path style="fill:#f3d85f; stroke:none;" d="M323 122C324.223 123.195 324.42 123.316 326 124C324.777 122.805 324.58 122.684 323 122z"/>
<path style="fill:#fff4c8; stroke:none;" d="M325.667 122.333C325.222 122.778 326.278 122.722 326.333 122.667C326.778 122.222 325.722 122.278 325.667 122.333z"/>
<path style="fill:#f4dc3f; stroke:none;" d="M148 123C152.215 124.769 157.464 124 162 124L189 124C220.028 124 251.047 124.361 282 125C278.162 122.378 273.51 123 269 123L245 123L148 123z"/>
<path style="fill:#fbe39b; stroke:none;" d="M326.667 123.333C326.222 123.778 327.278 123.722 327.333 123.667C327.778 123.222 326.722 123.278 326.667 123.333z"/>
<path style="fill:#ffeaa1; stroke:none;" d="M148 124C151.699 125.552 156.017 125 160 125L183 125L264 125C260.301 123.448 255.983 124 252 124L229 124L148 124z"/>
<path style="fill:#f6e587; stroke:none;" d="M264 124C267.697 125.552 272.017 125 276 125C272.303 123.448 267.983 124 264 124z"/>
<path style="fill:#fde87e; stroke:none;" d="M328.667 124.333C328.222 124.778 329.278 124.722 329.333 124.667C329.778 124.222 328.722 124.278 328.667 124.333z"/>
<path style="fill:#fffff6; stroke:none;" d="M133 125C128.553 129.71 130 136.893 130 143L130 188L130 368C132.76 361.422 131.997 350.205 132 343L132 295L132 128C134.364 135.999 133 145.688 133 154L133 204L133 370C135.395 364.293 134 356.154 134 350L134 308L134 179L134 143C134 137.381 135.189 130.216 133 125z"/>
<path style="fill:#f3da53; stroke:none;" d="M147 125L147 365C149.189 359.784 148 352.619 148 347L148 311L148 185L148 144C148 138.113 149.292 130.462 147 125z"/>
<path style="fill:#ffffdf; stroke:none;" d="M148 125L148 365C169.126 365 191.042 366.649 212 364L212 303C212 292.331 210.52 280.415 213 270C208.444 273.981 211 288.167 211 294L211 363L149 363L149 126C187.548 126.792 226.367 126 265 126C261.041 124.339 256.26 125 252 125L229 125L148 125z"/>
<path style="fill:#ffffd2; stroke:none;" d="M265 125C269.471 126.876 275.183 126 280 126C275.529 124.124 269.817 125 265 125z"/>
<path style="fill:#f9e66c; stroke:none;" d="M280 125C282.613 126.098 285.165 125.993 288 126C285.387 124.902 282.836 125.007 280 125z"/>
<path style="fill:#e7dc4a; stroke:none;" d="M288 125C292.983 127.414 298.516 127.985 304 128C299.018 125.744 293.443 125.016 288 125z"/>
<path style="fill:#ffdd2d; stroke:none;" d="M325 127C319.696 128.751 314.503 128.015 309 128C312.635 130.584 315.69 130.979 320 130L319 133L324 133C325.49 137.376 329.833 138.894 333.615 141.159C338.577 144.131 343.679 147.625 347.548 151.965C356.819 162.362 358.255 177.274 363 190C366.788 187.268 367.654 179.193 364 176C365.365 172.255 365.964 168.984 366 165L368 166C367.275 158.977 361.364 149.169 354 148L355 145C352.35 143.057 352.825 140.548 350.833 138.167C347.991 134.767 343.563 134.086 340 131.833C338.035 130.591 336.996 128.627 335 127.5C332.388 126.025 331.81 127.167 329.333 127.167C327.832 127.167 327.262 125.4 325.833 125.167C323.635 124.807 323.182 126.21 325 127z"/>
<path style="fill:#ffea8b; stroke:none;" d="M330.667 125.333C330.222 125.778 331.278 125.722 331.333 125.667C331.778 125.222 330.722 125.278 330.667 125.333z"/>
<path style="fill:#ebd767; stroke:none;" d="M135 126L135 363C137.085 358.031 136 351.35 136 346L136 310L136 186L136 145C136 139.113 137.292 131.462 135 126z"/>
<path style="fill:#fffdfe; stroke:none;" d="M149 126L149 360C162.317 356.59 178.246 359 192 359C197.339 359 202.854 359.521 208 358C204.309 355.204 199.485 356 195 356C184.338 356 171.242 353.973 161 357C158.075 346.592 159 335.726 159 325L159 274L159 178C159 161.423 156.97 143.32 160 127L156 127L156 352L153 352L153 208C153 180.826 154.62 152.998 152 126L149 126z"/>
<path style="fill:#faffff; stroke:none;" d="M151 127C154.155 134.446 153 143.046 153 151L153 195L153 352L156 352L156 126C154.122 126.176 152.801 126.438 151 127z"/>
<path style="fill:#fffef3; stroke:none;" d="M159 126C162.959 127.661 167.74 127 172 127L198 127L288 127C284.041 125.339 279.26 126 275 126L249 126L159 126z"/>
<path style="fill:#fff5af; stroke:none;" d="M288 126C289.248 126.685 289.548 126.749 291 127C289.752 126.315 289.452 126.251 288 126z"/>
<path style="fill:#f9e383; stroke:none;" d="M291.667 126.333C291.222 126.778 292.278 126.722 292.333 126.667C292.778 126.222 291.722 126.278 291.667 126.333z"/>
<path style="fill:#fffcb6; stroke:none;" d="M333.667 126.333C333.222 126.778 334.278 126.722 334.333 126.667C334.778 126.222 333.722 126.278 333.667 126.333z"/>
<path style="fill:#fefeff; stroke:none;" d="M210 355L210 299C210 290.099 211.531 279.561 209 271C206.097 277.919 208 288.52 208 296L208 351L161 351L161 128L234 128C245.669 128 257.473 129.457 269 128C261.841 124.996 250.744 127 243 127L185 127C179.001 127 173 126.959 167.001 127.001C164.468 127.018 161.1 126.654 159.742 129.318C158.122 132.496 159 137.543 159 141L159 166L159 259L159 327L159.001 345C159.013 347.293 158.651 350.467 160.179 352.397C162.513 355.344 169.694 354 173 354C185.152 354 198.024 352.777 210 355z"/>
<path style="fill:#fefefe; stroke:none;" d="M161 128L161 351L208 351L208 271C211.879 278.268 210 288.907 210 297L210 355C194.542 351.32 175.871 354 160 354C160 355.797 160.014 355.521 161 357C168.724 355.161 177.1 356 185 356C192.591 356 200.578 355.233 208 357C203.002 359.667 197.551 359 192 359C183.024 359 173.968 359.35 165 358.961C159.397 358.717 151.29 356.2 149 363L211 363L211 270C215.5 268.745 217.39 263.901 222.04 263.148C227.702 262.232 235.319 262.367 241 263.144C247.157 263.986 249.662 265.973 256 264C254.777 265.195 254.58 265.316 253 266C259.504 284.032 268.769 301.005 272 320L276 320C274.863 326.246 277.408 329.187 278.863 335C280.49 341.501 282.75 347.683 285.025 354C286.006 356.724 286.971 360.284 289.533 361.972C293.79 364.777 303.071 363 308 363L355 363C354.098 352.049 347.69 342.681 343.091 333C335.926 317.918 329.539 302.343 322.949 287C321.004 282.471 319.17 277.583 316.765 273.285C314.83 269.826 312.064 267.262 312.229 263.001C312.751 249.488 331.376 251.397 335 240C342.641 239.398 346.481 231.171 350.221 225.271C353.397 220.26 354.031 215.755 355.452 210.17C358.463 198.339 359.809 187.223 357.74 175C356.87 169.857 354.204 165.084 353 160L347 159L348 154C343.328 150.682 340.202 145.822 335.572 142.468C327.675 136.747 317.247 133.205 308 130.366C296.638 126.877 283.83 126.223 272 127.09C267.949 127.387 264.087 128.966 260 128.871C227.052 128.11 194.018 128 161 128z"/>
<path style="fill:#ffffc1; stroke:none;" d="M292 127C293.506 127.683 294.315 127.826 296 128C294.494 127.317 293.685 127.174 292 127z"/>
<path style="fill:#f4e78c; stroke:none;" d="M334.667 127.333C334.222 127.778 335.278 127.722 335.333 127.667C335.778 127.222 334.722 127.278 334.667 127.333z"/>
<path style="fill:#fdfeff; stroke:none;" d="M132 128L131 368C128.347 359.024 129 347.379 129 338L129 290L129 129C126.401 135.194 128 144.314 128 151L128 200C128 252.676 128.034 305.404 127.015 358C126.937 362.078 128.081 365.97 128 370C130.538 372.867 131.791 376.375 133 380L129 380C131.578 381.618 134.476 381.337 137 383C139.549 382.916 141.53 383.332 144 384C147.508 380.994 152.537 382.11 156.981 381.958C168.648 381.56 180.323 381.667 192 381.667C196.67 381.667 205.419 383.48 208 379L160 379C153.126 379 144.761 380.287 139.015 375.697C132.091 370.165 133 362.987 133 355L133 312L133 183L133 146C133 140.381 134.189 133.216 132 128z"/>
<path style="fill:#e9eaae; stroke:none;" d="M301 128C302.248 128.685 302.548 128.749 304 129C302.752 128.315 302.452 128.251 301 128z"/>
<path style="fill:#eede43; stroke:none;" d="M304 128C306.793 129.707 309.802 130.338 313 131C310.237 128.597 307.622 128.168 304 128z"/>
<path style="fill:#edd64a; stroke:none;" d="M337 128C338.206 131.556 340.56 132.724 344 134C341.935 131.457 339.777 129.745 337 128z"/>
<path style="fill:#ffffa3; stroke:none;" d="M304 129C305.248 129.685 305.548 129.749 307 130C305.752 129.315 305.452 129.251 304 129z"/>
<path style="fill:#f7e572; stroke:none;" d="M309.667 130.333C309.222 130.778 310.278 130.722 310.333 130.667C310.778 130.222 309.722 130.278 309.667 130.333z"/>
<path style="fill:#f0de3c; stroke:none;" d="M314 131C316.995 133.384 320.338 134.042 324 135C322.46 133.197 321.402 133.168 319 133C319.986 131.521 320 131.797 320 130L314 131z"/>
<path style="fill:#ffffa8; stroke:none;" d="M310.667 131.333C310.222 131.778 311.278 131.722 311.333 131.667C311.778 131.222 310.722 131.278 310.667 131.333z"/>
<path style="fill:#fef16b; stroke:none;" d="M312.667 131.333C312.222 131.778 313.278 131.722 313.333 131.667C313.778 131.222 312.722 131.278 312.667 131.333z"/>
<path style="fill:#ffffd8; stroke:none;" d="M342 131C343.45 132.608 344.051 133.064 346 134C344.55 132.392 343.949 131.936 342 131z"/>
<path style="fill:#feed9e; stroke:none;" d="M314.667 132.333C314.222 132.778 315.278 132.722 315.333 132.667C315.778 132.222 314.722 132.278 314.667 132.333z"/>
<path style="fill:#fffc9b; stroke:none;" d="M316.667 133.333C316.222 133.778 317.278 133.722 317.333 133.667C317.778 133.222 316.722 133.278 316.667 133.333z"/>
<path style="fill:#f9e697; stroke:none;" d="M320 134C321.458 135.081 322.248 135.436 324 136C322.457 134.733 321.952 134.511 320 134z"/>
<path style="fill:#ffffcd; stroke:none;" d="M346 134C347.45 135.608 348.051 136.064 350 137C348.55 135.392 347.949 134.936 346 134z"/>
<path style="fill:#fff5ab; stroke:none;" d="M324 136C325.543 137.267 326.048 137.489 328 138C326.542 136.919 325.752 136.564 324 136z"/>
<path style="fill:#ffffce; stroke:none;" d="M350 137C352.291 140.245 354.755 142.709 358 145C356.751 140.521 354.225 138.721 350 137z"/>
<path style="fill:#ffe88b; stroke:none;" d="M328.667 138.333C328.222 138.778 329.278 138.722 329.333 138.667C329.778 138.222 328.722 138.278 328.667 138.333z"/>
<path style="fill:#f7e36a; stroke:none;" d="M332.667 140.333C332.222 140.778 333.278 140.722 333.333 140.667C333.778 140.222 332.722 140.278 332.667 140.333z"/>
<path style="fill:#e7df63; stroke:none;" d="M352 140C352.839 142.626 353.374 143.161 356 144C354.67 142.247 353.753 141.33 352 140z"/>
<path style="fill:#ffe562; stroke:none;" d="M336.667 143.333C336.222 143.778 337.278 143.722 337.333 143.667C337.778 143.222 336.722 143.278 336.667 143.333z"/>
<path style="fill:#efe360; stroke:none;" d="M338 144C339.45 145.608 340.051 146.064 342 147C340.55 145.392 339.949 144.936 338 144z"/>
<path style="fill:#f6db3f; stroke:none;" d="M353 144C354.004 145.607 354.196 146.035 354 148C357.644 149.051 359.079 150.769 361 154C361.966 149.046 357.383 145.306 353 144z"/>
<path style="fill:#fbdf68; stroke:none;" d="M356 144C356.684 145.58 356.805 145.777 358 147C357.316 145.42 357.195 145.223 356 144z"/>
<path style="fill:#fffbd2; stroke:none;" d="M358 146C359.103 147.457 359.543 147.897 361 149C360.101 146.876 360.124 146.899 358 146z"/>
<path style="fill:#fffdd1; stroke:none;" d="M341 147C342.48 150.166 344.168 151.951 347 154C345.52 150.834 343.832 149.049 341 147z"/>
<path style="fill:#f2e03f; stroke:none;" d="M343 148C344.758 150.588 346.291 152.441 349 154C347.518 150.896 346.104 149.482 343 148z"/>
<path style="fill:#fee688; stroke:none;" d="M361.333 150.667C361.278 150.722 361.222 151.778 361.667 151.333C361.722 151.278 361.778 150.222 361.333 150.667z"/>
<path style="fill:#fce67a; stroke:none;" d="M362 152C362.684 153.58 362.805 153.777 364 155C363.316 153.42 363.195 153.223 362 152z"/>
<path style="fill:#fff6bd; stroke:none;" d="M348.333 154.667C348.278 154.722 348.222 155.778 348.667 155.333C348.722 155.278 348.778 154.222 348.333 154.667z"/>
<path style="fill:#fad948; stroke:none;" d="M349 155L353 161C353.44 157.779 351.75 156.437 349 155z"/>
<path style="fill:#f7e08e; stroke:none;" d="M364 155C364.406 157.092 364.217 157.02 366 158C365.309 156.612 365.015 156.139 364 155z"/>
<path style="fill:#ffffe4; stroke:none;" d="M348 156C347.014 157.479 347 157.203 347 159L351 160L350 156L348 156z"/>
<path style="fill:#fff6c3; stroke:none;" d="M350 157C350.684 158.58 350.805 158.777 352 160C351.316 158.42 351.195 158.223 350 157z"/>
<path style="fill:#fff1a6; stroke:none;" d="M366.333 158.667C366.278 158.722 366.222 159.778 366.667 159.333C366.722 159.278 366.778 158.222 366.333 158.667z"/>
<path style="fill:#fff69a; stroke:none;" d="M367.333 160.667C367.278 160.722 367.222 161.778 367.667 161.333C367.722 161.278 367.778 160.222 367.333 160.667z"/>
<path style="fill:#ffffe1; stroke:none;" d="M222 161C226.215 162.769 231.465 162 236 162L264 162C259.785 160.231 254.536 161 250 161L222 161z"/>
<path style="fill:#feef98; stroke:none;" d="M353.333 161.667C353.278 161.722 353.222 162.778 353.667 162.333C353.722 162.278 353.778 161.222 353.333 161.667z"/>
<path style="fill:#fff4a2; stroke:none;" d="M221 162C222.248 162.685 222.548 162.749 224 163C222.752 162.315 222.452 162.251 221 162z"/>
<path style="fill:#f7ea62; stroke:none;" d="M224 162C227.699 163.552 232.017 163 236 163L259 163C255.301 161.448 250.983 162 247 162L224 162z"/>
<path style="fill:#fff6a9; stroke:none;" d="M259 162C260.769 162.779 262.036 162.912 264 163C262.231 162.221 260.964 162.088 259 162z"/>
<path style="fill:#fffcde; stroke:none;" d="M264 162C266.603 163.561 268.978 163.862 272 164C269.412 162.622 266.92 162.239 264 162z"/>
<path style="fill:#fbffe4; stroke:none;" d="M374 162L374 170L376 170C375.965 166.808 375.942 164.56 374 162z"/>
<path style="fill:#fff6a6; stroke:none;" d="M218 163C219.248 163.685 219.548 163.749 221 164C219.752 163.315 219.452 163.251 218 163z"/>
<path style="fill:#ffdf2a; stroke:none;" d="M215 170L221 167C220.35 165.7 220.853 166 219 166C225.453 163.277 232.226 163.742 239 165C231.66 167.17 219.533 163.566 218 174C221.721 172.38 224.195 168.513 228.054 167.43C237.74 164.711 249.897 167.277 260 166C253.599 170.556 247.583 170 240 170L240 172C246.654 172 257.962 169.969 263 174L262 175C270.041 175.24 278.729 183.053 280.683 191C281.676 195.038 281 199.86 281 204C272.869 206.761 269.734 214.554 260 215C261.506 215.683 262.315 215.826 264 216L264 218L236 218C235.826 220.612 235.582 221.943 234 224C237.699 225.552 242.017 225 246 225C255.259 225 263.925 223.465 273 223L272 220C289.303 223.701 293.285 196.83 290.239 185C284.381 162.246 257.755 163 239 163C230.3 163 219.145 160.501 215 170z"/>
<path style="fill:#efd84a; stroke:none;" d="M256 163C259.867 164.638 264.793 164.819 269 165C264.942 162.842 260.509 163.003 256 163z"/>
<path style="fill:#ffeda3; stroke:none;" d="M265.667 163.333C265.222 163.778 266.278 163.722 266.333 163.667C266.778 163.222 265.722 163.278 265.667 163.333z"/>
<path style="fill:#ffde28; stroke:none;" d="M219 165C219.65 166.3 219.147 166 221 166C214.07 170.128 215 175.688 215 183L215 208C215.007 212.491 214.733 218.761 217.854 222.427C220.643 225.704 232.007 226.814 234.972 223.262C236.154 221.846 235.943 219.701 236 218L264 218L264 216C255.317 214.903 246.751 215 238 215C234.535 215 229.565 215.836 226.573 213.682C223.321 211.342 224.002 206.487 224 203L224 173L256 173C251.276 171.018 245.09 172 240 172L240 170C247.255 170 253.48 170.546 260 167C256.777 165.844 253.411 166.902 250 166.985C243.055 167.155 232.719 164.97 226.259 167.728C223.24 169.017 220.799 172.206 218 174C220.445 164.64 231.321 166 239 166C233.658 162.35 225.066 163.874 219 165z"/>
<path style="fill:#fff282; stroke:none;" d="M269 164C270.248 164.685 270.548 164.749 272 165C270.752 164.315 270.452 164.251 269 164z"/>
<path style="fill:#ffea93; stroke:none;" d="M354 164L355 168C355.553 165.992 355.303 165.668 354 164z"/>
<path style="fill:#f3ea84; stroke:none;" d="M368.333 164.667C368.278 164.722 368.222 165.778 368.667 165.333C368.722 165.278 368.778 164.222 368.333 164.667z"/>
<path style="fill:#fffecb; stroke:none;" d="M369.333 164.667C369.278 164.722 369.222 165.778 369.667 165.333C369.722 165.278 369.778 164.222 369.333 164.667z"/>
<path style="fill:#f0de6e; stroke:none;" d="M215 168C216.457 166.897 216.897 166.457 218 165C215.876 165.899 215.899 165.876 215 168z"/>
<path style="fill:#fef79f; stroke:none;" d="M272.667 165.333C272.222 165.778 273.278 165.722 273.333 165.667C273.778 165.222 272.722 165.278 272.667 165.333z"/>
<path style="fill:#ffde2c; stroke:none;" d="M366 165C365.909 168.892 364.989 172.261 364 176C367.232 180.266 366.595 186.193 363 190L362 186C359.34 192.339 360.14 201.129 358.729 208C357.452 214.221 353.216 221.596 349.91 227C345.011 235.007 338.499 241.482 330.715 246.711C325.697 250.08 318.096 252.126 315.6 258.286C313.105 264.442 318.066 273.746 321 279C324.267 271.214 314.944 264.902 322 259C322.095 267.545 328.223 273.788 330 282L328 282C327.544 278.878 326.815 277.472 324 276L324 282C327.435 283.414 328.344 287.058 331 283C331.879 286.694 331.997 290.214 332 294C337.431 286.702 332.921 279.298 329.861 272C328.904 269.716 326.634 265.856 327.498 263.313C328.369 260.747 333.818 259.107 336 257.78C344.362 252.694 357.173 245.322 354 234C355.723 234.934 357.106 235.535 359 236C362.071 229.828 361.89 226.686 362 220C363.635 220.545 363.455 220.365 364 222C368.926 217.678 368.5 213.016 369.439 207C371.32 194.959 374.418 175.284 366 165z"/>
<path style="fill:#f7e87a; stroke:none;" d="M273 166C274.248 166.685 274.548 166.749 276 167C274.752 166.315 274.452 166.251 273 166z"/>
<path style="fill:#f1dc47; stroke:none;" d="M368 166L369 176L371 176C370.698 172.311 370.164 169.038 368 166z"/>
<path style="fill:#fff89d; stroke:none;" d="M369.333 166.667C369.278 166.722 369.222 167.778 369.667 167.333C369.722 167.278 369.778 166.222 369.333 166.667z"/>
<path style="fill:#ffffce; stroke:none;" d="M213 167L213 170C214.015 168.861 214.309 168.388 215 167L213 167z"/>
<path style="fill:#fff8b7; stroke:none;" d="M276.667 167.333C276.222 167.778 277.278 167.722 277.333 167.667C277.778 167.222 276.722 167.278 276.667 167.333z"/>
<path style="fill:#fde13d; stroke:none;" d="M214 168L214 201C214 208.449 213.348 215.92 216 223C217.3 218.718 215.058 213.539 215.004 209C214.896 200.003 215 190.998 215 182C215 177.464 215.769 172.215 214 168z"/>
<path style="fill:#fffaca; stroke:none;" d="M278.667 168.333C278.222 168.778 279.278 168.722 279.333 168.667C279.778 168.222 278.722 168.278 278.667 168.333z"/>
<path style="fill:#fcef7b; stroke:none;" d="M356.333 168.667C356.278 168.722 356.222 169.778 356.667 169.333C356.722 169.278 356.778 168.222 356.333 168.667z"/>
<path style="fill:#f5e785; stroke:none;" d="M278.667 169.333C278.222 169.778 279.278 169.722 279.333 169.667C279.778 169.222 278.722 169.278 278.667 169.333z"/>
<path style="fill:#ffffd8; stroke:none;" d="M280 169C281.45 170.608 282.051 171.064 284 172C282.55 170.392 281.949 169.936 280 169z"/>
<path style="fill:#efd971; stroke:none;" d="M213 170L213 174C213.71 172.24 213.71 171.76 213 170z"/>
<path style="fill:#ffffc5; stroke:none;" d="M356.333 170.667C356.278 170.722 356.222 171.778 356.667 171.333C356.722 171.278 356.778 170.222 356.333 170.667z"/>
<path style="fill:#ffef9d; stroke:none;" d="M370.333 170.667C370.278 170.722 370.222 171.778 370.667 171.333C370.722 171.278 370.778 170.222 370.333 170.667z"/>
<path style="fill:#ffffdc; stroke:none;" d="M371 170C371.562 173.025 371.936 175.922 372 179C373.378 175.708 373.148 172.836 371 170z"/>
<path style="fill:#fffca9; stroke:none;" d="M212 171L212 219C213.661 215.041 213 210.26 213 206L213 183C213 179.017 213.552 174.699 212 171z"/>
<path style="fill:#f5db3b; stroke:none;" d="M224 173C231.275 176.053 242.144 173.822 250 174.015C254.547 174.126 258.552 175.278 263 174C258.935 171.239 254.644 172.872 250 172.985C241.344 173.197 232.659 173 224 173z"/>
<path style="fill:#ffd940; stroke:none;" d="M274 172L275 178L280 176C278.528 173.185 277.122 172.456 274 172z"/>
<path style="fill:#efe165; stroke:none;" d="M283 172C283.684 173.58 283.805 173.777 285 175C284.316 173.42 284.195 173.223 283 172z"/>
<path style="fill:#ffffbd; stroke:none;" d="M371 172L371 176C371.71 174.24 371.71 173.76 371 172z"/>
<path style="fill:#eed651; stroke:none;" d="M213 174L213 216C214.552 212.301 214 207.983 214 204C214 195.203 216.407 182.118 213 174z"/>
<path style="fill:#f0d965; stroke:none;" d="M224 176C234.12 173.591 245.633 175 256 175C249.332 172.202 239.207 173.986 232 174C228.895 174.006 226.103 173.593 224 176z"/>
<path style="fill:#fffae7; stroke:none;" d="M211 175L211 205C211 210.832 210.242 216.7 213 222C213.947 218.589 212.008 213.781 212 210L212 187C212 183.017 212.552 178.699 211 175z"/>
<path style="fill:#fff18c; stroke:none;" d="M225 175L225 213C228.105 205.6 226 194.007 226 186C226 182.298 226.441 178.435 225 175z"/>
<path style="fill:#ffffbe; stroke:none;" d="M226 175C234.367 178.511 247.924 176 257 176C248.633 172.489 235.076 175 226 175z"/>
<path style="fill:#fff791; stroke:none;" d="M257 175C258.769 175.779 260.036 175.912 262 176C260.231 175.221 258.964 175.088 257 175z"/>
<path style="fill:#f5d946; stroke:none;" d="M262 175C264.251 176.088 266.535 176.519 269 177C267.074 174.792 264.875 175.032 262 175z"/>
<path style="fill:#ffe982; stroke:none;" d="M286 175C286.684 176.58 286.805 176.777 288 178C287.316 176.42 287.195 176.223 286 175z"/>
<path style="fill:#f4db4a; stroke:none;" d="M224 176L224 213C227.004 205.841 225 194.744 225 187C225 183.298 225.441 179.435 224 176z"/>
<path style="fill:#fffee8; stroke:none;" d="M226 176L226 213C227.661 209.041 227 204.26 227 200L227 177C237.845 177 250.343 175.265 261 177.274C265.385 178.101 269.812 180.436 274 182C270.933 177.585 264.156 176.075 259 176.004C248.005 175.851 236.997 176 226 176z"/>
<path style="fill:#faec83; stroke:none;" d="M265.667 176.333C265.222 176.778 266.278 176.722 266.333 176.667C266.778 176.222 265.722 176.278 265.667 176.333z"/>
<path style="fill:#ffffb3; stroke:none;" d="M358 176L358 181C358.83 178.97 358.83 178.03 358 176z"/>
<path style="fill:#edda41; stroke:none;" d="M371 176C371 182.961 371.397 190.055 370.91 197C370.555 202.066 369.105 206.891 369 212C372.952 204.58 372 195.144 372 187C372 183.298 372.441 179.435 371 176z"/>
<path style="fill:#fefefe; stroke:none;" d="M227 177L227 213L255 213C260.547 212.991 267.555 213.015 272.366 209.861C280.319 204.648 279.913 185.886 271.815 181.096C259.332 173.711 240.965 177 227 177z"/>
<path style="fill:#fff287; stroke:none;" d="M267.667 177.333C267.222 177.778 268.278 177.722 268.333 177.667C268.778 177.222 267.722 177.278 267.667 177.333z"/>
<path style="fill:#eedc52; stroke:none;" d="M269.667 177.333C269.222 177.778 270.278 177.722 270.333 177.667C270.778 177.222 269.722 177.278 269.667 177.333z"/>
<path style="fill:#fffdc0; stroke:none;" d="M288 177L289 181C289.393 179.076 289.146 178.64 288 177z"/>
<path style="fill:#fff6af; stroke:none;" d="M268 178C269.248 178.685 269.548 178.749 271 179C269.752 178.315 269.452 178.251 268 178z"/>
<path style="fill:#fbdb66; stroke:none;" d="M271 178C272.223 179.195 272.42 179.316 274 180C272.777 178.805 272.58 178.684 271 178z"/>
<path style="fill:#f9eb85; stroke:none;" d="M359 179L359 184C359.83 181.97 359.83 181.03 359 179z"/>
<path style="fill:#fff6bf; stroke:none;" d="M372 179L372 184C372.83 181.97 372.83 181.031 372 179z"/>
<path style="fill:#ffffe4; stroke:none;" d="M373 180L372 208C375.704 200.054 376.891 188.096 373 180z"/>
<path style="fill:#f6e961; stroke:none;" d="M289.333 181.667C289.278 181.722 289.222 182.778 289.667 182.333C289.722 182.278 289.778 181.222 289.333 181.667z"/>
<path style="fill:#fff7cc; stroke:none;" d="M358 181L359 192C360.546 188.309 360.042 184.409 358 181z"/>
<path style="fill:#ffffd3; stroke:none;" d="M274.333 182.667C274.278 182.722 274.222 183.778 274.667 183.333C274.722 183.278 274.778 182.222 274.333 182.667z"/>
<path style="fill:#ffffa4; stroke:none;" d="M275.333 182.667C275.278 182.722 275.222 183.778 275.667 183.333C275.722 183.278 275.778 182.222 275.333 182.667z"/>
<path style="fill:#ffeba6; stroke:none;" d="M290.333 182.667C290.278 182.722 290.222 183.778 290.667 183.333C290.722 183.278 290.778 182.222 290.333 182.667z"/>
<path style="fill:#eedc46; stroke:none;" d="M360 182L360 198C361.812 193.681 361.812 186.319 360 182z"/>
<path style="fill:#fff3a7; stroke:none;" d="M276 184C278.102 190.561 278.867 195.136 278 202C281.581 196.758 280.524 188.307 276 184z"/>
<path style="fill:#f6dd6c; stroke:none;" d="M290.333 184.667C290.278 184.722 290.222 185.778 290.667 185.333C290.722 185.278 290.778 184.222 290.333 184.667z"/>
<path style="fill:#f8e599; stroke:none;" d="M372 184L372 200C373.812 195.681 373.812 188.319 372 184z"/>
<path style="fill:#ffea86; stroke:none;" d="M291.333 186.667C291.278 186.722 291.222 187.778 291.667 187.333C291.722 187.278 291.778 186.222 291.333 186.667z"/>
<path style="fill:#ffffe2; stroke:none;" d="M277 187C276.432 191.226 277.588 194.829 278 199C279.629 195.109 278.956 190.68 277 187z"/>
<path style="fill:#f7dd47; stroke:none;" d="M279 187C279.796 193.301 279.628 197.846 278 204C283.088 202.91 282.03 190.03 279 187z"/>
<path style="fill:#ffffd3; stroke:none;" d="M292 187L292 192C292.83 189.969 292.83 189.03 292 187z"/>
<path style="fill:#f0e439; stroke:none;" d="M291 188C291 193.101 290.639 197.948 290 203C292.712 199.03 292.847 192.402 291 188z"/>
<path style="fill:#fff4a5; stroke:none;" d="M292 192L292 200C293.161 197.23 293.161 194.77 292 192z"/>
<path style="fill:#fee9a8; stroke:none;" d="M359 192L359 198C359.951 195.715 359.951 194.285 359 192z"/>
<path style="fill:#ffffd0; stroke:none;" d="M358 196L358 203C359.059 200.466 359.059 198.534 358 196z"/>
<path style="fill:#f1dd5e; stroke:none;" d="M359 198L359 202C359.71 200.24 359.71 199.759 359 198z"/>
<path style="fill:#f6dd5d; stroke:none;" d="M291 201C290.428 203.377 290.11 205.558 290 208C291.289 205.57 291.806 203.639 291 201z"/>
<path style="fill:#ffffd1; stroke:none;" d="M277 202L276 206C277.146 204.359 277.393 203.924 277 202z"/>
<path style="fill:#fffed8; stroke:none;" d="M357 203L357 208C357.83 205.969 357.83 205.03 357 203z"/>
<path style="fill:#fcf078; stroke:none;" d="M358.333 203.667C358.278 203.722 358.222 204.778 358.667 204.333C358.722 204.278 358.778 203.222 358.333 203.667z"/>
<path style="fill:#fffd9f; stroke:none;" d="M371 203L371 208C371.83 205.97 371.83 205.03 371 203z"/>
<path style="fill:#ecd66f; stroke:none;" d="M277 204L276 208C277.303 206.332 277.553 206.008 277 204z"/>
<path style="fill:#ffffc5; stroke:none;" d="M291 204L288 213C291.032 210.433 292.581 207.869 291 204z"/>
<path style="fill:#f3d159; stroke:none;" d="M358 205L357 212C358.827 209.588 359.15 207.831 358 205z"/>
<path style="fill:#e9d86c; stroke:none;" d="M288 208L288 211C288.696 209.446 288.696 209.554 288 208z"/>
<path style="fill:#ffffe1; stroke:none;" d="M355 208L355 214C356.063 212.031 356.532 210.202 357 208L355 208z"/>
<path style="fill:#ffe695; stroke:none;" d="M357.333 208.667C357.278 208.722 357.222 209.778 357.667 209.333C357.722 209.278 357.778 208.222 357.333 208.667z"/>
<path style="fill:#ffe21c; stroke:none;" d="M360 208C360.933 212.802 360.569 216.199 360 221C364.236 217.414 366.211 210.497 360 208z"/>
<path style="fill:#f5dd8e; stroke:none;" d="M370.333 208.667C370.278 208.722 370.222 209.778 370.667 209.333C370.722 209.278 370.778 208.222 370.333 208.667z"/>
<path style="fill:#ffffd4; stroke:none;" d="M371 208C370.158 210.994 369.416 213.917 369 217C371.563 214.265 372.446 211.554 371 208z"/>
<path style="fill:#ffea99; stroke:none;" d="M272 209L272 211C273.635 210.455 273.455 210.635 274 209L272 209z"/>
<path style="fill:#fffa9c; stroke:none;" d="M356.333 210.667C356.278 210.722 356.222 211.778 356.667 211.333C356.722 211.278 356.778 210.222 356.333 210.667z"/>
<path style="fill:#f1dea5; stroke:none;" d="M269 211C270.248 211.685 270.548 211.749 272 212C270.752 211.315 270.452 211.251 269 211z"/>
<path style="fill:#fbedaa; stroke:none;" d="M234 213C237.435 214.441 241.298 214 245 214C251.97 214 259.183 214.623 266 213C262.821 212.022 259.349 212.957 256 212.996C248.669 213.083 241.332 213 234 213z"/>
<path style="fill:#f3dd44; stroke:none;" d="M226 214C230.215 215.769 235.464 215 240 215C250.314 215 261.076 216.146 271 213C266.819 211.385 262.398 213.856 258 213.985C247.352 214.297 236.653 214 226 214z"/>
<path style="fill:#fbe68c; stroke:none;" d="M287 212C284.082 214.741 281.675 217.352 280 221C282.88 218.935 287.386 215.86 287 212z"/>
<path style="fill:#f6e860; stroke:none;" d="M356.333 212.667C356.278 212.722 356.222 213.778 356.667 213.333C356.722 213.278 356.778 212.222 356.333 212.667z"/>
<path style="fill:#fff187; stroke:none;" d="M369.333 212.667C369.278 212.722 369.222 213.778 369.667 213.333C369.722 213.278 369.778 212.222 369.333 212.667z"/>
<path style="fill:#faef94; stroke:none;" d="M226 213C228.613 214.098 231.164 213.993 234 214C231.387 212.902 228.836 213.007 226 213z"/>
<path style="fill:#fff7c3; stroke:none;" d="M286 214L286 216C287.635 215.455 287.455 215.635 288 214L286 214z"/>
<path style="fill:#ffef9d; stroke:none;" d="M355.333 214.667C355.278 214.722 355.222 215.778 355.667 215.333C355.722 215.278 355.778 214.222 355.333 214.667z"/>
<path style="fill:#f6ea7c; stroke:none;" d="M213 216L214 220C214.393 218.076 214.146 217.64 213 216z"/>
<path style="fill:#fff799; stroke:none;" d="M354.333 216.667C354.278 216.722 354.222 217.778 354.667 217.333C354.722 217.278 354.778 216.222 354.333 216.667z"/>
<path style="fill:#fff7a3; stroke:none;" d="M368.333 216.667C368.278 216.722 368.222 217.778 368.667 217.333C368.722 217.278 368.778 216.222 368.333 216.667z"/>
<path style="fill:#ffe582; stroke:none;" d="M367 218L366 222C367.303 220.332 367.553 220.008 367 218z"/>
<path style="fill:#fde785; stroke:none;" d="M353.333 219.667C353.278 219.722 353.222 220.778 353.667 220.333C353.722 220.278 353.778 219.222 353.333 219.667z"/>
<path style="fill:#fff9ae; stroke:none;" d="M214.333 220.667C214.278 220.722 214.222 221.778 214.667 221.333C214.722 221.278 214.778 220.222 214.333 220.667z"/>
<path style="fill:#ffd93d; stroke:none;" d="M272 220C272 221.797 272.014 221.521 273 223C270.216 223.058 267.709 223.352 265 224C269.007 225.232 273.242 223.603 277 222C275.307 220.938 273.96 220.48 272 220z"/>
<path style="fill:#e9e169; stroke:none;" d="M278.667 220.333C278.222 220.778 279.278 220.722 279.333 220.667C279.778 220.222 278.722 220.278 278.667 220.333z"/>
<path style="fill:#f8e13c; stroke:none;" d="M362 220C361.576 223.05 361.996 225.092 363 228C365.02 225.463 365.67 223.218 366 220C364.805 220.598 365.023 220.466 364 222C363.232 220.686 363.314 220.768 362 220z"/>
<path style="fill:#fcf487; stroke:none;" d="M277 221C278.248 221.685 278.548 221.749 280 222C278.752 221.315 278.452 221.251 277 221z"/>
<path style="fill:#f6e789; stroke:none;" d="M352.333 221.667C352.278 221.722 352.222 222.778 352.667 222.333C352.722 222.278 352.778 221.222 352.333 221.667z"/>
<path style="fill:#ffffb3; stroke:none;" d="M215.333 222.667C215.278 222.722 215.222 223.778 215.667 223.333C215.722 223.278 215.778 222.222 215.333 222.667z"/>
<path style="fill:#fff3c5; stroke:none;" d="M274 223C275.846 223.468 277.069 223.301 279 223C276.956 222.226 276.155 222.408 274 223z"/>
<path style="fill:#ffedb2; stroke:none;" d="M366.333 222.667C366.278 222.722 366.222 223.778 366.667 223.333C366.722 223.278 366.778 222.222 366.333 222.667z"/>
<path style="fill:#fde155; stroke:none;" d="M216 223C217.458 224.081 218.248 224.436 220 225C218.457 223.733 217.952 223.511 216 223z"/>
<path style="fill:#ffffbc; stroke:none;" d="M216 224C217.543 225.267 218.048 225.489 220 226C218.542 224.919 217.752 224.564 216 224z"/>
<path style="fill:#fadb64; stroke:none;" d="M268 224C269.506 224.683 270.315 224.826 272 225C270.494 224.317 269.685 224.174 268 224z"/>
<path style="fill:#fff8b4; stroke:none;" d="M350 224L349 228C350.274 226.659 351.041 225.597 352 224L350 224z"/>
<path style="fill:#fff99d; stroke:none;" d="M365.333 224.667C365.278 224.722 365.222 225.778 365.667 225.333C365.722 225.278 365.778 224.222 365.333 224.667z"/>
<path style="fill:#f5da4a; stroke:none;" d="M220 225C224.72 226.981 230.92 226 236 226L267 226C262.28 224.019 256.08 225 251 225L220 225z"/>
<path style="fill:#ffffc1; stroke:none;" d="M267 225C268.769 225.779 270.036 225.912 272 226C270.231 225.221 268.964 225.088 267 225z"/>
<path style="fill:#fff7b9; stroke:none;" d="M222 226C226.215 227.769 231.464 227 236 227L264 227C259.785 225.231 254.536 226 250 226L222 226z"/>
<path style="fill:#fff8b2; stroke:none;" d="M364.333 226.667C364.278 226.722 364.222 227.778 364.667 227.333C364.722 227.278 364.778 226.222 364.333 226.667z"/>
<path style="fill:#faeb6b; stroke:none;" d="M348 228L348 230C349.635 229.455 349.455 229.635 350 228L348 228z"/>
<path style="fill:#fff6bf; stroke:none;" d="M363 228L362 232C363.303 230.332 363.553 230.008 363 228z"/>
<path style="fill:#fff993; stroke:none;" d="M346 230L346 232C347.635 231.455 347.455 231.635 348 230L346 230z"/>
<path style="fill:#f4dd63; stroke:none;" d="M361.333 230.667C361.278 230.722 361.222 231.778 361.667 231.333C361.722 231.278 361.778 230.222 361.333 230.667z"/>
<path style="fill:#fee87d; stroke:none;" d="M345 232C344.014 233.479 344 233.203 344 235C345.289 233.557 345.401 233.766 345 232z"/>
<path style="fill:#fff9b4; stroke:none;" d="M361 232C360.014 233.479 360 233.203 360 235C361.289 233.557 361.401 233.766 361 232z"/>
<path style="fill:#ffdf3e; stroke:none;" d="M354 234C354.839 236.626 355.374 237.161 358 238C356.919 235.879 356.121 235.081 354 234z"/>
<path style="fill:#fcec85; stroke:none;" d="M359.333 234.667C359.278 234.722 359.222 235.778 359.667 235.333C359.722 235.278 359.778 234.222 359.333 234.667z"/>
<path style="fill:#ffeb9b; stroke:none;" d="M343 235L344 236L343 235z"/>
<path style="fill:#eae363; stroke:none;" d="M340 240C341.753 238.67 342.67 237.753 344 236C341.751 237.154 341.154 237.751 340 240z"/>
<path style="fill:#fff2b0; stroke:none;" d="M358 236L358 238C359.635 237.455 359.455 237.635 360 236L358 236z"/>
<path style="fill:#ffdf85; stroke:none;" d="M356 238L356 240C357.635 239.455 357.455 239.635 358 238L356 238z"/>
<path style="fill:#ffffd5; stroke:none;" d="M357 239C355.233 241.308 353.385 243.456 352 246C355.043 244.37 357.752 242.695 357 239z"/>
<path style="fill:#ffffda; stroke:none;" d="M335 240L332 245C334.49 244.065 335.999 242.736 338 241C336.752 240.315 336.452 240.251 335 240z"/>
<path style="fill:#fff69a; stroke:none;" d="M355 240C354.043 241.517 353.613 242.338 353 244C354.63 242.485 355.163 242.145 355 240z"/>
<path style="fill:#ffef8c; stroke:none;" d="M336 241L336 243C337.635 242.455 337.455 242.635 338 241L336 241z"/>
<path style="fill:#ffef91; stroke:none;" d="M328 247C329.809 247.574 330.069 247.465 332 247C330.341 246.594 329.758 246.691 328 247z"/>
<path style="fill:#fff0b7; stroke:none;" d="M350 246L350 248C351.635 247.455 351.455 247.635 352 246L350 246z"/>
<path style="fill:#f5e379; stroke:none;" d="M349 247L350 248L349 247z"/>
<path style="fill:#ffff93; stroke:none;" d="M326.667 248.333C326.222 248.778 327.278 248.722 327.333 248.667C327.778 248.222 326.722 248.278 326.667 248.333z"/>
<path style="fill:#ffe617; stroke:none;" d="M338 248C338.587 251.403 339.649 252.272 343 253C342.066 250.177 340.707 249.189 338 248z"/>
<path style="fill:#fff9b3; stroke:none;" d="M348 248L348 250C349.635 249.455 349.455 249.635 350 248L348 248z"/>
<path style="fill:#fff49d; stroke:none;" d="M324.667 249.333C324.222 249.778 325.278 249.722 325.333 249.667C325.778 249.222 324.722 249.278 324.667 249.333z"/>
<path style="fill:#fcf48e; stroke:none;" d="M322 250L322 252C323.635 251.455 323.455 251.635 324 250L322 250z"/>
<path style="fill:#fffdc4; stroke:none;" d="M343 254C345.357 252.896 346.376 252.044 348 250C345.643 251.104 344.624 251.956 343 254z"/>
<path style="fill:#fff49a; stroke:none;" d="M316 255L320 253C317.692 252.442 317.244 253.004 316 255z"/>
<path style="fill:#f8d748; stroke:none;" d="M314 265C315.937 260.443 316.957 257.171 320 253C314.078 255.371 314.005 259.17 314 265z"/>
<path style="fill:#ffffe7; stroke:none;" d="M328 267C328.685 265.752 328.749 265.452 329 264L339 261C340.106 258.487 341.523 256.323 343 254C337.514 256.509 329.026 260.657 328 267z"/>
<path style="fill:#fffdcd; stroke:none;" d="M313 256L313 259C313.696 257.446 313.696 257.554 313 256z"/>
<path style="fill:#f5f099; stroke:none;" d="M333 259C335.888 259.41 337.115 258.153 339 256C336.778 256.81 335.01 257.739 333 259z"/>
<path style="fill:#ede38b; stroke:none;" d="M313 259L313 265C313.951 262.715 313.951 261.285 313 259z"/>
<path style="fill:#ffdd2d; stroke:none;" d="M323 284L326 283C325.003 288.306 324.641 297.148 331 299C332.51 310.595 339.707 321.961 344.89 332.17C349.183 340.623 353.19 350.932 356 360L362 359L359 368C351.277 366.161 342.9 367 335 367L293 367C296.95 369.946 302.277 368.024 307 368.001C320.453 367.936 334.616 366.774 348 368.105C353.547 368.656 359.075 371.702 361 377C363.207 374.725 364.881 373.638 368 373C368.478 369.245 370.238 365.864 369.81 361.996C368.932 354.06 363.458 346.628 359.904 339.729C354.154 328.569 350.297 316.332 344.794 304.985C341.624 298.449 337.135 291.183 336 284C334.494 287.108 333.772 290.624 333 294L331 283C330.315 284.248 330.251 284.548 330 286C327.978 284.26 326.536 282.825 324 282L324 276C326.331 277.809 327.267 279.143 328 282L330 282C328.952 273.632 322.247 267.445 322 259C315.195 262.753 320.364 266.815 321.687 272.09C322.618 275.804 322.516 280.169 323 284z"/>
<path style="fill:#ffffe9; stroke:none;" d="M312 260C312.008 263.169 312.1 265.959 313 269C313.717 266.012 313.217 262.821 312 260z"/>
<path style="fill:#f3df58; stroke:none;" d="M327 261C328.506 261.683 329.315 261.826 331 262C329.494 261.317 328.685 261.174 327 261z"/>
<path style="fill:#fee68f; stroke:none;" d="M326 262L327 266C327.911 264.623 328.404 263.56 329 262L326 262z"/>
<path style="fill:#ffffe4; stroke:none;" d="M218 265C226.978 262.862 236.94 263.855 246 265C241.059 261.256 232.005 262.988 226 263C222.894 263.006 220.103 262.593 218 265z"/>
<path style="fill:#fff190; stroke:none;" d="M219 264C225.687 266.806 235.767 265 243 265C236.313 262.194 226.233 264 219 264z"/>
<path style="fill:#ffffda; stroke:none;" d="M249 266C250.797 268.167 252.473 269.756 255 271L253 266L256 266L256 264L249 266z"/>
<path style="fill:#f7e78a; stroke:none;" d="M216 268C217.457 266.897 217.897 266.457 219 265C216.876 265.899 216.899 265.876 216 268z"/>
<path style="fill:#f3d84b; stroke:none;" d="M219 265C226.169 268.008 237.239 266 245 266C237.831 262.992 226.761 265 219 265z"/>
<path style="fill:#fef0a4; stroke:none;" d="M245.667 265.333C245.222 265.778 246.278 265.722 246.333 265.667C246.778 265.222 245.722 265.278 245.667 265.333z"/>
<path style="fill:#fffbc0; stroke:none;" d="M313.333 265.667C313.278 265.722 313.222 266.778 313.667 266.333C313.722 266.278 313.778 265.222 313.333 265.667z"/>
<path style="fill:#fce56c; stroke:none;" d="M314 265L314 268C314.696 266.446 314.696 266.554 314 265z"/>
<path style="fill:#ffde3a; stroke:none;" d="M215 271C224.285 265.16 235.342 267 246 267C240.539 264.709 232.885 265.997 227 266C224.444 266.001 221.495 265.665 219.059 266.599C216.777 267.473 216.024 268.969 215 271z"/>
<path style="fill:#f0e168; stroke:none;" d="M246 266C247.248 266.685 247.548 266.749 249 267C247.752 266.315 247.452 266.251 246 266z"/>
<path style="fill:#ffdf48; stroke:none;" d="M315 266C315.378 268.551 315.988 270.627 317 273C317.653 270.106 316.856 268.266 315 266z"/>
<path style="fill:#ffdf28; stroke:none;" d="M214 375L219 375L220 368L216 368L216 365L220 365L220 270C226.716 269.151 233.229 269 240 269C241.165 274.849 244.008 277.801 250 278L250 282L247 282C247.34 293.48 254.229 304.877 257 316C257.683 314.494 257.826 313.685 258 312C260.604 313.522 262.081 315.651 264 318C260.145 318.826 260.644 322.559 261.417 326C262.947 332.815 266.946 339.218 268 346L270 346C271.048 341.3 270.977 332.608 275 330C273.165 323.02 270.341 315.935 268 309C266.604 309.661 266.186 309.964 265 311L265 309L262 311C262.308 308.637 262.83 307.075 264 305C262.169 299.794 259.301 293.494 259 288L256 288L256 292C254.663 289.521 254.184 287.81 254 285L257 285C256.991 281.812 257.695 276.247 254.486 274.268C252.294 272.917 249.476 274.153 247.094 273.648C244.809 273.164 243.542 271.601 242 270C245.2 270.208 247.918 271.275 251 272C250.294 270.078 249.831 268.48 247.772 267.599C245.454 266.607 242.458 267.001 240 267C234.09 266.997 225.587 265.458 220.019 267.603C217.575 268.545 215.961 270.489 215.318 273.005C212.881 282.542 215 295.158 215 305C215 328.315 215.488 351.909 214 375z"/>
<path style="fill:#f8ef94; stroke:none;" d="M249.667 267.333C249.222 267.778 250.278 267.722 250.333 267.667C250.778 267.222 249.722 267.278 249.667 267.333z"/>
<path style="fill:#fbfc97; stroke:none;" d="M328 267C328.684 268.58 328.805 268.777 330 270C329.316 268.42 329.195 268.223 328 267z"/>
<path style="fill:#ffe881; stroke:none;" d="M214 268L213 272C214.434 270.607 215.045 269.767 216 268L214 268z"/>
<path style="fill:#fdd93a; stroke:none;" d="M250 268L251 272C247.896 270.891 245.323 270.098 242 270C245.142 274.597 248.937 274.205 254 273C252.942 270.799 251.881 269.565 250 268z"/>
<path style="fill:#fff6bb; stroke:none;" d="M314 268L314 271C314.696 269.446 314.696 269.554 314 268z"/>
<path style="fill:#ffde32; stroke:none;" d="M220 270L220 365L216 365L216 368L220 368L219 372L224 371L224 302L224.001 285C224.017 282.609 223.731 279.576 225.603 277.742C229.16 274.26 238.411 276 243 276C241.817 273.672 240.777 271.489 240 269C233.268 269 226.642 268.767 220 270z"/>
<path style="fill:#eeda64; stroke:none;" d="M252.333 269.667C252.278 269.722 252.222 270.778 252.667 270.333C252.722 270.278 252.778 269.222 252.333 269.667z"/>
<path style="fill:#ffef8d; stroke:none;" d="M315 269L315 272C315.696 270.446 315.696 270.554 315 269z"/>
<path style="fill:#f3ef5f; stroke:none;" d="M329.333 270.667C329.278 270.722 329.222 271.778 329.667 271.333C329.722 271.278 329.778 270.222 329.333 270.667z"/>
<path style="fill:#fffca9; stroke:none;" d="M212 271L212 362C214.497 356.049 213 347.42 213 341L213 295C213 287.784 214.802 277.678 212 271z"/>
<path style="fill:#fde13d; stroke:none;" d="M214 271L214 360C216.497 354.049 215 345.42 215 339L215 294C215 287.049 216.701 277.436 214 271z"/>
<path style="fill:#ffe58e; stroke:none;" d="M254 271L254 274C254.696 272.446 254.696 272.554 254 271z"/>
<path style="fill:#fffbd0; stroke:none;" d="M255 271L255 274C255.696 272.446 255.696 272.554 255 271z"/>
<path style="fill:#eed651; stroke:none;" d="M213 272L213 363C215.497 357.049 214 348.42 214 342L214 296C214 288.784 215.802 278.678 213 272z"/>
<path style="fill:#fddc12; stroke:none;" d="M232 275C234.739 274.789 235.422 274.697 236 272C233.791 272.684 233.297 273.08 232 275z"/>
<path style="fill:#ffe36a; stroke:none;" d="M330.333 272.667C330.278 272.722 330.222 273.778 330.667 273.333C330.722 273.278 330.778 272.222 330.333 272.667z"/>
<path style="fill:#ffed90; stroke:none;" d="M317.333 273.667C317.278 273.722 317.222 274.778 317.667 274.333C317.722 274.278 317.778 273.222 317.333 273.667z"/>
<path style="fill:#f7e26e; stroke:none;" d="M331.333 274.667C331.278 274.722 331.222 275.778 331.667 275.333C331.722 275.278 331.778 274.222 331.333 274.667z"/>
<path style="fill:#fffec1; stroke:none;" d="M256 275C256.684 276.58 256.805 276.777 258 278C257.316 276.42 257.195 276.223 256 275z"/>
<path style="fill:#f5e063; stroke:none;" d="M318 275C318.406 277.092 318.217 277.02 320 278C319.316 276.42 319.195 276.223 318 275z"/>
<path style="fill:#f1e35f; stroke:none;" d="M226 276C231.438 278.282 238.175 276.613 244 278C240.587 274.094 230.93 276 226 276z"/>
<path style="fill:#f4db4a; stroke:none;" d="M224 277L224 368C226.903 361.081 225 350.48 225 343L225 301C225 293.1 224.161 284.724 226 277L224 277z"/>
<path style="fill:#fff9ad; stroke:none;" d="M226 277C230.217 278.769 235.459 278 240 278C235.783 276.231 230.541 277 226 277z"/>
<path style="fill:#fff18a; stroke:none;" d="M240 277C241.248 277.685 241.548 277.749 243 278C241.752 277.315 241.452 277.251 240 277z"/>
<path style="fill:#fadc41; stroke:none;" d="M320 277C320.772 281.483 322.591 285.678 324 290C325.222 287.717 325.652 285.572 326 283C324.203 283 324.479 283.014 323 284C322.612 281.03 321.963 279.262 320 277z"/>
<path style="fill:#fbf079; stroke:none;" d="M332 277C332.684 278.58 332.805 278.777 334 280C333.316 278.42 333.195 278.223 332 277z"/>
<path style="fill:#fff18c; stroke:none;" d="M225 278L225 364C227.599 357.806 226 348.686 226 342L226 298C226 291.846 227.395 283.707 225 278z"/>
<path style="fill:#ffffe1; stroke:none;" d="M226 278L226 364C229.004 356.841 227 345.744 227 338L227 279L243 280C243.094 282.205 243.356 283.894 244 286C244.815 283.354 244.213 280.774 244 278L226 278z"/>
<path style="fill:#fedc3e; stroke:none;" d="M244 278L246 285C247.351 283.598 248.254 282.824 250 282L250 278L244 278z"/>
<path style="fill:#fff991; stroke:none;" d="M257.333 278.667C257.278 278.722 257.222 279.778 257.667 279.333C257.722 279.278 257.778 278.222 257.333 278.667z"/>
<path style="fill:#fff3a4; stroke:none;" d="M319.333 278.667C319.278 278.722 319.222 279.778 319.667 279.333C319.722 279.278 319.778 278.222 319.333 278.667z"/>
<path style="fill:#fefdff; stroke:none;" d="M227 279L227 362C229.903 355.081 228 344.48 228 337C228 318.235 226.451 299.259 231 281C231.644 283.106 231.906 284.795 232 287C243.93 286.39 240.392 303.864 241.183 311.961C241.46 314.799 243.265 317.273 244 320C249.213 317.467 251.632 316.471 255 322C258.391 317.484 254.521 313.633 252.955 308.999C250.956 303.08 250.084 296.965 247.816 291.015C246.315 287.077 243.629 284.238 243 280C237.618 279.575 232.421 279 227 279z"/>
<path style="fill:#fbde3a; stroke:none;" d="M257 280L257 285L254 285C254.052 287.528 254.278 289.582 255 292C255.683 290.494 255.826 289.685 256 288L259 288C259.121 292.979 261.361 300.944 264 305C262.499 307.113 262.178 308.403 262 311C264.012 310.396 264.323 309.764 266 311C266.8 303.796 263.766 298.577 261.502 292C260.094 287.908 259.145 283.797 257 280z"/>
<path style="fill:#ffef8d; stroke:none;" d="M320.333 280.667C320.278 280.722 320.222 281.778 320.667 281.333C320.722 281.278 320.778 280.222 320.333 280.667z"/>
<path style="fill:#ffe99e; stroke:none;" d="M334.333 280.667C334.278 280.722 334.222 281.778 334.667 281.333C334.722 281.278 334.778 280.222 334.333 280.667z"/>
<path style="fill:#fffcaf; stroke:none;" d="M244.333 281.667C244.278 281.722 244.222 282.778 244.667 282.333C244.722 282.278 244.778 281.222 244.333 281.667z"/>
<path style="fill:#f3e46b; stroke:none;" d="M245 281L245 284C245.696 282.446 245.696 282.554 245 281z"/>
<path style="fill:#f5db77; stroke:none;" d="M258.333 282.667C258.278 282.722 258.222 283.778 258.667 283.333C258.722 283.278 258.778 282.222 258.333 282.667z"/>
<path style="fill:#fdeb96; stroke:none;" d="M321.333 282.667C321.278 282.722 321.222 283.778 321.667 283.333C321.722 283.278 321.778 282.222 321.333 282.667z"/>
<path style="fill:#fede5a; stroke:none;" d="M334.333 282.667C334.278 282.722 334.222 283.778 334.667 283.333C334.722 283.278 334.778 282.222 334.333 282.667z"/>
<path style="fill:#ffe489; stroke:none;" d="M335.333 282.667C335.278 282.722 335.222 283.778 335.667 283.333C335.722 283.278 335.778 282.222 335.333 282.667z"/>
<path style="fill:#fff7b3; stroke:none;" d="M245.333 284.667C245.278 284.722 245.222 285.778 245.667 285.333C245.722 285.278 245.778 284.222 245.333 284.667z"/>
<path style="fill:#fff07b; stroke:none;" d="M259.333 284.667C259.278 284.722 259.222 285.778 259.667 285.333C259.722 285.278 259.778 284.222 259.333 284.667z"/>
<path style="fill:#ffffde; stroke:none;" d="M260 284C260.704 291.02 264.817 297.046 266 304C269.287 298.378 263.293 288.948 260 284z"/>
<path style="fill:#fff37e; stroke:none;" d="M246 285L246 288C246.696 286.446 246.696 286.554 246 285z"/>
<path style="fill:#fffc9f; stroke:none;" d="M322.333 285.667C322.278 285.722 322.222 286.778 322.667 286.333C322.722 286.278 322.778 285.222 322.333 285.667z"/>
<path style="fill:#e6de72; stroke:none;" d="M336.333 286.667C336.278 286.722 336.222 287.778 336.667 287.333C336.722 287.278 336.778 286.222 336.333 286.667z"/>
<path style="fill:#f7eeab; stroke:none;" d="M247.333 288.667C247.278 288.722 247.222 289.778 247.667 289.333C247.722 289.278 247.778 288.222 247.333 288.667z"/>
<path style="fill:#eddc6a; stroke:none;" d="M337 288C337.651 290.434 338.16 291.283 340 293C339.199 290.896 338.503 289.663 337 288z"/>
<path style="fill:#ffffed; stroke:none;" d="M344 288C343.066 289.723 342.465 291.106 342 293C340.889 291.258 340.73 290.881 339 290L342 298C343.694 294.917 345.164 291.418 346 288L344 288z"/>
<path style="fill:#f4e156; stroke:none;" d="M248 289L249 293C249.393 291.076 249.146 290.64 248 289z"/>
<path style="fill:#efda5f; stroke:none;" d="M261 290C261.176 291.878 261.438 293.199 262 295C262.473 292.857 262.133 291.899 261 290z"/>
<path style="fill:#ffed9a; stroke:none;" d="M324 290C324.684 291.58 324.805 291.777 326 293C325.316 291.42 325.195 291.223 324 290z"/>
<path style="fill:#fff3bc; stroke:none;" d="M248.333 292.667C248.278 292.722 248.222 293.778 248.667 293.333C248.722 293.278 248.778 292.222 248.333 292.667z"/>
<path style="fill:#ffe493; stroke:none;" d="M249 293L249 296C249.696 294.446 249.696 294.554 249 293z"/>
<path style="fill:#ffff9c; stroke:none;" d="M263.333 294.667C263.278 294.722 263.222 295.778 263.667 295.333C263.722 295.278 263.778 294.222 263.333 294.667z"/>
<path style="fill:#fff9b2; stroke:none;" d="M326 294L327 298C327.393 296.076 327.146 295.64 326 294z"/>
<path style="fill:#f0df71; stroke:none;" d="M340.333 294.667C340.278 294.722 340.222 295.778 340.667 295.333C340.722 295.278 340.778 294.222 340.333 294.667z"/>
<path style="fill:#fced76; stroke:none;" d="M341.333 296.667C341.278 296.722 341.222 297.778 341.667 297.333C341.722 297.278 341.778 296.222 341.333 296.667z"/>
<path style="fill:#fff49d; stroke:none;" d="M250.333 297.667C250.278 297.722 250.222 298.778 250.667 298.333C250.722 298.278 250.778 297.222 250.333 297.667z"/>
<path style="fill:#fae389; stroke:none;" d="M264.333 298.667C264.278 298.722 264.222 299.778 264.667 299.333C264.722 299.278 264.778 298.222 264.333 298.667z"/>
<path style="fill:#fade90; stroke:none;" d="M342.333 298.667C342.278 298.722 342.222 299.778 342.667 299.333C342.722 299.278 342.778 298.222 342.333 298.667z"/>
<path style="fill:#fced96; stroke:none;" d="M251.333 299.667C251.278 299.722 251.222 300.778 251.667 300.333C251.722 300.278 251.778 299.222 251.333 299.667z"/>
<path style="fill:#ffffbe; stroke:none;" d="M328.333 299.667C328.278 299.722 328.222 300.778 328.667 300.333C328.722 300.278 328.778 299.222 328.333 299.667z"/>
<path style="fill:#f4d53e; stroke:none;" d="M329 299C329.848 302.366 331.153 305.063 333 308C333.507 304.618 331.677 301.081 329 299z"/>
<path style="fill:#f2e358; stroke:none;" d="M252 300L252 304C252.71 302.24 252.71 301.759 252 300z"/>
<path style="fill:#fff389; stroke:none;" d="M265.333 300.667C265.278 300.722 265.222 301.778 265.667 301.333C265.722 301.278 265.778 300.222 265.333 300.667z"/>
<path style="fill:#f5dd55; stroke:none;" d="M342 300C342.684 301.58 342.805 301.777 344 303C343.316 301.42 343.195 301.223 342 300z"/>
<path style="fill:#fff2c8; stroke:none;" d="M329.333 301.667C329.278 301.722 329.222 302.778 329.667 302.333C329.722 302.278 329.778 301.222 329.333 301.667z"/>
<path style="fill:#fff9bf; stroke:none;" d="M344 301L345 305C345.393 303.076 345.146 302.64 344 301z"/>
<path style="fill:#ffffe6; stroke:none;" d="M252 304C252.224 308.314 253.83 311.899 255 316C256.449 311.912 254.305 307.472 252 304z"/>
<path style="fill:#ffe58b; stroke:none;" d="M253 304L253 307C253.696 305.446 253.696 305.554 253 304z"/>
<path style="fill:#fff090; stroke:none;" d="M266 304C266.684 305.58 266.805 305.777 268 307C267.316 305.42 267.195 305.223 266 304z"/>
<path style="fill:#fffcb4; stroke:none;" d="M331.333 305.667C331.278 305.722 331.222 306.778 331.667 306.333C331.722 306.278 331.778 305.222 331.333 305.667z"/>
<path style="fill:#ffe374; stroke:none;" d="M345.333 305.667C345.278 305.722 345.222 306.778 345.667 306.333C345.722 306.278 345.778 305.222 345.333 305.667z"/>
<path style="fill:#e9db53; stroke:none;" d="M266 306C266.684 307.58 266.805 307.777 268 309C267.316 307.42 267.195 307.223 266 306z"/>
<path style="fill:#ffffcd; stroke:none;" d="M346 306L348 312C348.744 309.265 347.915 308.032 346 306z"/>
<path style="fill:#ffeb87; stroke:none;" d="M254.333 307.667C254.278 307.722 254.222 308.778 254.667 308.333C254.722 308.278 254.778 307.222 254.333 307.667z"/>
<path style="fill:#fff6ae; stroke:none;" d="M332.333 307.667C332.278 307.722 332.222 308.778 332.667 308.333C332.722 308.278 332.778 307.222 332.333 307.667z"/>
<path style="fill:#f0da63; stroke:none;" d="M255.333 308.667C255.278 308.722 255.222 309.778 255.667 309.333C255.722 309.278 255.778 308.222 255.333 308.667z"/>
<path style="fill:#f8dc82; stroke:none;" d="M333.333 308.667C333.278 308.722 333.222 309.778 333.667 309.333C333.722 309.278 333.778 308.222 333.333 308.667z"/>
<path style="fill:#ede562; stroke:none;" d="M346.333 308.667C346.278 308.722 346.222 309.778 346.667 309.333C346.722 309.278 346.778 308.222 346.333 308.667z"/>
<path style="fill:#f0e181; stroke:none;" d="M268.333 309.667C268.278 309.722 268.222 310.778 268.667 310.333C268.722 310.278 268.778 309.222 268.333 309.667z"/>
<path style="fill:#f9e655; stroke:none;" d="M334 309L334 312C334.696 310.446 334.696 310.554 334 309z"/>
<path style="fill:#f6e394; stroke:none;" d="M255.333 310.667C255.278 310.722 255.222 311.778 255.667 311.333C255.722 311.278 255.778 310.222 255.333 310.667z"/>
<path style="fill:#ffffb3; stroke:none;" d="M269.333 310.667C269.278 310.722 269.222 311.778 269.667 311.333C269.722 311.278 269.778 310.222 269.333 310.667z"/>
<path style="fill:#f0e132; stroke:none;" d="M258 312L260 325C261.269 322.104 261.212 319.803 264 318L261 312L258 312z"/>
<path style="fill:#fcee6e; stroke:none;" d="M269.333 312.667C269.278 312.722 269.222 313.778 269.667 313.333C269.722 313.278 269.778 312.222 269.333 312.667z"/>
<path style="fill:#fff6a5; stroke:none;" d="M334.333 312.667C334.278 312.722 334.222 313.778 334.667 313.333C334.722 313.278 334.778 312.222 334.333 312.667z"/>
<path style="fill:#f1e463; stroke:none;" d="M335.333 312.667C335.278 312.722 335.222 313.778 335.667 313.333C335.722 313.278 335.778 312.222 335.333 312.667z"/>
<path style="fill:#ffed9a; stroke:none;" d="M348 312C348.684 313.58 348.805 313.777 350 315C349.316 313.42 349.195 313.223 348 312z"/>
<path style="fill:#fffda9; stroke:none;" d="M256.333 314.667C256.278 314.722 256.222 315.778 256.667 315.333C256.722 315.278 256.778 314.222 256.333 314.667z"/>
<path style="fill:#ffe999; stroke:none;" d="M270.333 314.667C270.278 314.722 270.222 315.778 270.667 315.333C270.722 315.278 270.778 314.222 270.333 314.667z"/>
<path style="fill:#ffffb6; stroke:none;" d="M335.333 314.667C335.278 314.722 335.222 315.778 335.667 315.333C335.722 315.278 335.778 314.222 335.333 314.667z"/>
<path style="fill:#f8dc57; stroke:none;" d="M348 314C348.684 315.58 348.805 315.777 350 317C349.316 315.42 349.195 315.223 348 314z"/>
<path style="fill:#fdf29f; stroke:none;" d="M350 315L351 320C351.651 317.766 351.318 316.926 350 315z"/>
<path style="fill:#ffeca4; stroke:none;" d="M257.333 316.667C257.278 316.722 257.222 317.778 257.667 317.333C257.722 317.278 257.778 316.222 257.333 316.667z"/>
<path style="fill:#f2e555; stroke:none;" d="M258 316L258 320C258.71 318.24 258.71 317.759 258 316z"/>
<path style="fill:#fffa9f; stroke:none;" d="M271.333 316.667C271.278 316.722 271.222 317.778 271.667 317.333C271.722 317.278 271.778 316.222 271.333 316.667z"/>
<path style="fill:#fff2a2; stroke:none;" d="M336.333 316.667C336.278 316.722 336.222 317.778 336.667 317.333C336.722 317.278 336.778 316.222 336.333 316.667z"/>
<path style="fill:#fae765; stroke:none;" d="M337 316L337 320C337.71 318.24 337.71 317.759 337 316z"/>
<path style="fill:#f7da45; stroke:none;" d="M271 318C271.077 320.645 270.997 322.266 273 324C272.532 321.798 272.063 319.969 271 318z"/>
<path style="fill:#ffffc6; stroke:none;" d="M258 320L259 324C259.393 322.076 259.146 321.64 258 320z"/>
<path style="fill:#eddd77; stroke:none;" d="M259.333 320.667C259.278 320.722 259.222 321.778 259.667 321.333C259.722 321.278 259.778 320.222 259.333 320.667z"/>
<path style="fill:#fbe692; stroke:none;" d="M272.333 320.667C272.278 320.722 272.222 321.778 272.667 321.333C272.722 321.278 272.778 320.222 272.333 320.667z"/>
<path style="fill:#ffffe5; stroke:none;" d="M273 320L274 326C275.225 323.987 275.645 322.341 276 320L273 320z"/>
<path style="fill:#faf282; stroke:none;" d="M338.333 320.667C338.278 320.722 338.222 321.778 338.667 321.333C338.722 321.278 338.778 320.222 338.333 320.667z"/>
<path style="fill:#fef7b0; stroke:none;" d="M352 320L353 324C353.553 321.992 353.303 321.668 352 320z"/>
<path style="fill:#fff29b; stroke:none;" d="M273 322L273 325C273.696 323.446 273.696 323.554 273 322z"/>
<path style="fill:#ffffca; stroke:none;" d="M338.333 322.667C338.278 322.722 338.222 323.778 338.667 323.333C338.722 323.278 338.778 322.222 338.333 322.667z"/>
<path style="fill:#fff28c; stroke:none;" d="M339.333 322.667C339.278 322.722 339.222 323.778 339.667 323.333C339.722 323.278 339.778 322.222 339.333 322.667z"/>
<path style="fill:#fffbd4; stroke:none;" d="M339.333 324.667C339.278 324.722 339.222 325.778 339.667 325.333C339.722 325.278 339.778 324.222 339.333 324.667z"/>
<path style="fill:#fff9b6; stroke:none;" d="M354 324L355 328C355.553 325.992 355.303 325.668 354 324z"/>
<path style="fill:#ffffe4; stroke:none;" d="M364 324L364 328L366 328L366 324L364 324z"/>
<path style="fill:#ffffb3; stroke:none;" d="M260.333 325.667C260.278 325.722 260.222 326.778 260.667 326.333C260.722 326.278 260.778 325.222 260.333 325.667z"/>
<path style="fill:#fffca7; stroke:none;" d="M340.333 325.667C340.278 325.722 340.222 326.778 340.667 326.333C340.722 326.278 340.778 325.222 340.333 325.667z"/>
<path style="fill:#f5de7c; stroke:none;" d="M261.333 326.667C261.278 326.722 261.222 327.778 261.667 327.333C261.722 327.278 261.778 326.222 261.333 326.667z"/>
<path style="fill:#f5df80; stroke:none;" d="M274.333 326.667C274.278 326.722 274.222 327.778 274.667 327.333C274.722 327.278 274.778 326.222 274.333 326.667z"/>
<path style="fill:#f6e776; stroke:none;" d="M341.333 326.667C341.278 326.722 341.222 327.778 341.667 327.333C341.722 327.278 341.778 326.222 341.333 326.667z"/>
<path style="fill:#ffffe2; stroke:none;" d="M356 326C356.176 327.878 356.438 329.199 357 331C357.473 328.857 357.133 327.899 356 326z"/>
<path style="fill:#fce877; stroke:none;" d="M275.333 328.667C275.278 328.722 275.222 329.778 275.667 329.333C275.722 329.278 275.778 328.222 275.333 328.667z"/>
<path style="fill:#fffebb; stroke:none;" d="M341.333 328.667C341.278 328.722 341.222 329.778 341.667 329.333C341.722 329.278 341.778 328.222 341.333 328.667z"/>
<path style="fill:#fff579; stroke:none;" d="M262.333 329.667C262.278 329.722 262.222 330.778 262.667 330.333C262.722 330.278 262.778 329.222 262.333 329.667z"/>
<path style="fill:#ffffe8; stroke:none;" d="M276 329L278 336C279.042 332.977 278.134 331.275 276 329z"/>
<path style="fill:#fff98b; stroke:none;" d="M342.333 329.667C342.278 329.722 342.222 330.778 342.667 330.333C342.722 330.278 342.778 329.222 342.333 329.667z"/>
<path style="fill:#ffde2c; stroke:none;" d="M272 330C272 332.919 272.315 336.057 271.806 338.94C271.012 343.434 266.323 350.047 273 352C273.258 357.639 276.045 370.475 281.299 373.566C286.289 376.502 295.389 374 301 374L352 374L352 376L289 376C295.436 378.701 305.049 377 312 377L361 377C359.229 368.787 350.056 368.003 343 368C324.589 367.993 306.186 368.154 288 367C287.698 362.308 285.568 359.256 283.894 355C281.823 349.732 280.771 344.057 278.635 338.715C276.959 334.523 276.982 330.864 272 330z"/>
<path style="fill:#edde3e; stroke:none;" d="M343 330L345 335C345.71 332.469 345.131 331.484 343 330z"/>
<path style="fill:#edde67; stroke:none;" d="M356.333 330.667C356.278 330.722 356.222 331.778 356.667 331.333C356.722 331.278 356.778 330.222 356.333 330.667z"/>
<path style="fill:#ffffc3; stroke:none;" d="M262.333 331.667C262.278 331.722 262.222 332.778 262.667 332.333C262.722 332.278 262.778 331.222 262.333 331.667z"/>
<path style="fill:#fffcbc; stroke:none;" d="M342 331C342.684 332.58 342.805 332.777 344 334C343.316 332.42 343.195 332.223 342 331z"/>
<path style="fill:#fbf08d; stroke:none;" d="M357.333 331.667C357.278 331.722 357.222 332.778 357.667 332.333C357.722 332.278 357.778 331.222 357.333 331.667z"/>
<path style="fill:#ffef9a; stroke:none;" d="M263.333 332.667C263.278 332.722 263.222 333.778 263.667 333.333C263.722 333.278 263.778 332.222 263.333 332.667z"/>
<path style="fill:#e8e348; stroke:none;" d="M356 332C356.684 333.58 356.805 333.777 358 335C357.316 333.42 357.195 333.223 356 332z"/>
<path style="fill:#fef689; stroke:none;" d="M277 333L277 336C277.696 334.446 277.696 334.554 277 333z"/>
<path style="fill:#ffe886; stroke:none;" d="M344 333L345 337C345.393 335.076 345.146 334.64 344 333z"/>
<path style="fill:#f6ea93; stroke:none;" d="M358.333 333.667C358.278 333.722 358.222 334.778 358.667 334.333C358.722 334.278 358.778 333.222 358.333 333.667z"/>
<path style="fill:#ffffef; stroke:none;" d="M263 334C262.883 336.73 262.501 339.314 262 342L267 346C266.357 341.858 264.904 337.728 263 334z"/>
<path style="fill:#ffffc4; stroke:none;" d="M359.333 334.667C359.278 334.722 359.222 335.778 359.667 335.333C359.722 335.278 359.778 334.222 359.333 334.667z"/>
<path style="fill:#fff8a2; stroke:none;" d="M264 336L265 340C265.393 338.076 265.146 337.64 264 336z"/>
<path style="fill:#ffe798; stroke:none;" d="M278.333 336.667C278.278 336.722 278.222 337.778 278.667 337.333C278.722 337.278 278.778 336.222 278.333 336.667z"/>
<path style="fill:#ead64e; stroke:none;" d="M359 336C359.168 338.403 359.197 339.46 361 341C360.449 339.175 359.924 337.648 359 336z"/>
<path style="fill:#fff9c8; stroke:none;" d="M345.333 337.667C345.278 337.722 345.222 338.778 345.667 338.333C345.722 338.278 345.778 337.222 345.333 337.667z"/>
<path style="fill:#f8ed7f; stroke:none;" d="M346.333 337.667C346.278 337.722 346.222 338.778 346.667 338.333C346.722 338.278 346.778 337.222 346.333 337.667z"/>
<path style="fill:#ffe566; stroke:none;" d="M278.333 338.667C278.278 338.722 278.222 339.778 278.667 339.333C278.722 339.278 278.778 338.222 278.333 338.667z"/>
<path style="fill:#ffed9d; stroke:none;" d="M279.333 338.667C279.278 338.722 279.222 339.778 279.667 339.333C279.722 339.278 279.778 338.222 279.333 338.667z"/>
<path style="fill:#ffffa3; stroke:none;" d="M360 338L361 342C361.553 339.992 361.303 339.668 360 338z"/>
<path style="fill:#fff8ce; stroke:none;" d="M346.333 339.667C346.278 339.722 346.222 340.778 346.667 340.333C346.722 340.278 346.778 339.222 346.333 339.667z"/>
<path style="fill:#f6e688; stroke:none;" d="M347.333 339.667C347.278 339.722 347.222 340.778 347.667 340.333C347.722 340.278 347.778 339.222 347.333 339.667z"/>
<path style="fill:#fff99e; stroke:none;" d="M266.333 341.667C266.278 341.722 266.222 342.778 266.667 342.333C266.722 342.278 266.778 341.222 266.333 341.667z"/>
<path style="fill:#fee974; stroke:none;" d="M348 341L349 346C349.651 343.766 349.318 342.926 348 341z"/>
<path style="fill:#ecd965; stroke:none;" d="M267.333 342.667C267.278 342.722 267.222 343.778 267.667 343.333C267.722 343.278 267.778 342.222 267.333 342.667z"/>
<path style="fill:#fde98c; stroke:none;" d="M280.333 342.667C280.278 342.722 280.222 343.778 280.667 343.333C280.722 343.278 280.778 342.222 280.333 342.667z"/>
<path style="fill:#ffef9c; stroke:none;" d="M362.333 342.667C362.278 342.722 362.222 343.778 362.667 343.333C362.722 343.278 362.778 342.222 362.333 342.667z"/>
<path style="fill:#ffffc1; stroke:none;" d="M281 343L281 346C281.696 344.446 281.696 344.554 281 343z"/>
<path style="fill:#fff2bc; stroke:none;" d="M267.333 344.667C267.278 344.722 267.222 345.778 267.667 345.333C267.722 345.278 267.778 344.222 267.333 344.667z"/>
<path style="fill:#fff38e; stroke:none;" d="M363.333 344.667C363.278 344.722 363.222 345.778 363.667 345.333C363.722 345.278 363.778 344.222 363.333 344.667z"/>
<path style="fill:#fff792; stroke:none;" d="M268.333 346.667C268.278 346.722 268.222 347.778 268.667 347.333C268.722 347.278 268.778 346.222 268.333 346.667z"/>
<path style="fill:#fbee82; stroke:none;" d="M350.333 346.667C350.278 346.722 350.222 347.778 350.667 347.333C350.722 347.278 350.778 346.222 350.333 346.667z"/>
<path style="fill:#ffe981; stroke:none;" d="M282.333 347.667C282.278 347.722 282.222 348.778 282.667 348.333C282.722 348.278 282.778 347.222 282.333 347.667z"/>
<path style="fill:#f9e67a; stroke:none;" d="M364.333 347.667C364.278 347.722 364.222 348.778 364.667 348.333C364.722 348.278 364.778 347.222 364.333 347.667z"/>
<path style="fill:#ffffb3; stroke:none;" d="M283.333 348.667C283.278 348.722 283.222 349.778 283.667 349.333C283.722 349.278 283.778 348.222 283.333 348.667z"/>
<path style="fill:#f2e189; stroke:none;" d="M351.333 348.667C351.278 348.722 351.222 349.778 351.667 349.333C351.722 349.278 351.778 348.222 351.333 348.667z"/>
<path style="fill:#ffffa2; stroke:none;" d="M365.333 348.667C365.278 348.722 365.222 349.778 365.667 349.333C365.722 349.278 365.778 348.222 365.333 348.667z"/>
<path style="fill:#ffffda; stroke:none;" d="M269 349C268.289 353.618 269.004 357.244 273 360C272.115 356.174 271.097 352.333 269 349z"/>
<path style="fill:#fcdb47; stroke:none;" d="M283 350C283.052 352.528 283.278 354.582 284 357C284.613 354.422 284.145 352.39 283 350z"/>
<path style="fill:#f7e142; stroke:none;" d="M271 352L273 359C273.67 356.171 273.243 353.886 271 352z"/>
<path style="fill:#ffee99; stroke:none;" d="M352 352C352.684 353.58 352.805 353.777 354 355C353.316 353.42 353.195 353.223 352 352z"/>
<path style="fill:#ffe687; stroke:none;" d="M366 352C366.684 353.58 366.805 353.777 368 355C367.316 353.42 367.195 353.223 366 352z"/>
<path style="fill:#f4e78b; stroke:none;" d="M271.333 353.667C271.278 353.722 271.222 354.778 271.667 354.333C271.722 354.278 271.778 353.222 271.333 353.667z"/>
<path style="fill:#fee287; stroke:none;" d="M284.333 353.667C284.278 353.722 284.222 354.778 284.667 354.333C284.722 354.278 284.778 353.222 284.333 353.667z"/>
<path style="fill:#fff5ad; stroke:none;" d="M285.333 354.667C285.278 354.722 285.222 355.778 285.667 355.333C285.722 355.278 285.778 354.222 285.333 354.667z"/>
<path style="fill:#f3e16e; stroke:none;" d="M354 354L354 357C354.696 355.446 354.696 355.554 354 354z"/>
<path style="fill:#ffffc8; stroke:none;" d="M368 354L369 358C369.393 356.076 369.146 355.64 368 354z"/>
<path style="fill:#fbeb6e; stroke:none;" d="M285.333 356.667C285.278 356.722 285.222 357.778 285.667 357.333C285.722 357.278 285.778 356.222 285.333 356.667z"/>
<path style="fill:#ffffc5; stroke:none;" d="M354.333 357.667C354.278 357.722 354.222 358.778 354.667 358.333C354.722 358.278 354.778 357.222 354.333 357.667z"/>
<path style="fill:#fff799; stroke:none;" d="M286 358L287 362C287.393 360.076 287.146 359.64 286 358z"/>
<path style="fill:#fefa9c; stroke:none;" d="M355.333 358.667C355.278 358.722 355.222 359.778 355.667 359.333C355.722 359.278 355.778 358.222 355.333 358.667z"/>
<path style="fill:#fff28e; stroke:none;" d="M369.333 358.667C369.278 358.722 369.222 359.778 369.667 359.333C369.722 359.278 369.778 358.222 369.333 358.667z"/>
<path style="fill:#ffffda; stroke:none;" d="M370 358C369.995 365.204 369.324 373.36 361.91 377.012C355.936 379.954 345.549 378 339 378L286 378C292.194 380.599 301.314 379 308 379L344 379C349.698 379 356.425 379.974 361.996 378.697C366.968 377.557 370.909 372.346 373 368C370.67 364.925 371.44 361.431 370 358z"/>
<path style="fill:#f2e08a; stroke:none;" d="M273 359L273 362C273.696 360.446 273.696 360.554 273 359z"/>
<path style="fill:#f7dc44; stroke:none;" d="M357 360L358 366L288 366C293.951 368.497 302.58 367 309 367C325.261 367 342.99 365.028 359 368C360.228 364.989 361.429 362.208 362 359C360.122 359.176 358.801 359.438 357 360z"/>
<path style="fill:#feda53; stroke:none;" d="M274 360C274.719 364.226 276.253 368.093 278 372C278.985 367.992 276.512 363.14 274 360z"/>
<path style="fill:#fffae6; stroke:none;" d="M355 360C352.041 364.564 344.904 363 340 363L304 363C299.059 363 293.077 364.089 289 361C287.216 365.732 300.964 364 304 364L356 364C355.826 362.315 355.683 361.506 355 360z"/>
<path style="fill:#ffef87; stroke:none;" d="M356.333 360.667C356.278 360.722 356.222 361.778 356.667 361.333C356.722 361.278 356.778 360.222 356.333 360.667z"/>
<path style="fill:#ffef7d; stroke:none;" d="M212 362L212 365C212.696 363.446 212.696 363.554 212 362z"/>
<path style="fill:#fffcb4; stroke:none;" d="M356 362C355.455 363.635 355.635 363.455 354 364C356.033 364.785 356.785 364.034 356 362z"/>
<path style="fill:#fae084; stroke:none;" d="M357 362C353.764 366.992 344.364 365 339 365L288 365C294.194 367.599 303.314 366 310 366L358 366C357.826 364.315 357.683 363.506 357 362z"/>
<path style="fill:#fee885; stroke:none;" d="M135 363L135 368C135.83 365.969 135.83 365.03 135 363z"/>
<path style="fill:#fffaac; stroke:none;" d="M274.333 363.667C274.278 363.722 274.222 364.778 274.667 364.333C274.722 364.278 274.778 363.222 274.333 363.667z"/>
<path style="fill:#ffffad; stroke:none;" d="M208 364C209.506 364.683 210.315 364.826 212 365C210.494 364.317 209.685 364.174 208 364z"/>
<path style="fill:#fffaa7; stroke:none;" d="M225 364L225 368C225.71 366.24 225.71 365.759 225 364z"/>
<path style="fill:#ffffd2; stroke:none;" d="M288 364C293.951 366.497 302.58 365 309 365L354 365C348.049 362.503 339.42 364 333 364L288 364z"/>
<path style="fill:#fae084; stroke:none;" d="M148 365C153.707 367.395 161.846 366 168 366L212 366C206.293 363.605 198.154 365 192 365L148 365z"/>
<path style="fill:#fff9bb; stroke:none;" d="M275 365L275 369C275.71 367.241 275.71 366.759 275 365z"/>
<path style="fill:#f7dc43; stroke:none;" d="M156 366C160.969 368.085 167.65 367 173 367C185.785 367 199.402 365.661 212 368C208.914 364.469 201.411 366 197 366L156 366z"/>
<path style="fill:#e8dc71; stroke:none;" d="M368 368L368 371C368.696 369.446 368.696 369.554 368 368z"/>
<path style="fill:#fff19c; stroke:none;" d="M276 369C276.684 370.58 276.805 370.777 278 372C277.316 370.42 277.195 370.223 276 369z"/>
<path style="fill:#ffffe0; stroke:none;" d="M134 370C136.116 374.522 138.999 377.228 144 378C140.845 375.154 137.487 372.425 134 370z"/>
<path style="fill:#ebd14f; stroke:none;" d="M219 375C220.753 373.67 221.67 372.753 223 371C220.374 371.839 219.839 372.374 219 375z"/>
<path style="fill:#ffffd9; stroke:none;" d="M223 371L219 376C221.517 374.753 223.083 373.895 223 371z"/>
<path style="fill:#ffffdf; stroke:none;" d="M276 371C276.684 372.58 276.805 372.777 278 374C277.316 372.42 277.195 372.223 276 371z"/>
<path style="fill:#ffffc3; stroke:none;" d="M278 372C278.684 373.58 278.805 373.777 280 375C279.316 373.42 279.195 373.223 278 372z"/>
<path style="fill:#f5db51; stroke:none;" d="M362 376C363.894 375.535 365.277 374.934 367 374C364.469 373.29 363.484 373.869 362 376z"/>
<path style="fill:#f8e472; stroke:none;" d="M139 374C140.223 375.195 140.42 375.316 142 376C140.777 374.805 140.58 374.684 139 374z"/>
<path style="fill:#eddc82; stroke:none;" d="M280 374C281.223 375.195 281.42 375.316 283 376C281.777 374.805 281.58 374.684 280 374z"/>
<path style="fill:#f3dd51; stroke:none;" d="M282 374C283.45 375.608 284.051 376.064 286 377C284.55 375.392 283.949 374.936 282 374z"/>
<path style="fill:#fede36; stroke:none;" d="M285 375C289.404 378.068 298.588 376 304 376L352 376L352 374C329.899 374 306.923 372.229 285 375z"/>
<path style="fill:#f4d86a; stroke:none;" d="M142.667 376.333C142.222 376.778 143.278 376.722 143.333 376.667C143.778 376.222 142.722 376.278 142.667 376.333z"/>
<path style="fill:#ebde4f; stroke:none;" d="M212 376C213.506 376.683 214.315 376.826 216 377C214.494 376.317 213.685 376.174 212 376z"/>
<path style="fill:#fffabc; stroke:none;" d="M216.667 376.333C216.222 376.778 217.278 376.722 217.333 376.667C217.778 376.222 216.722 376.278 216.667 376.333z"/>
<path style="fill:#ffffc4; stroke:none;" d="M282 376C283.223 377.195 283.42 377.316 285 378C283.777 376.805 283.58 376.684 282 376z"/>
<path style="fill:#fff694; stroke:none;" d="M360 377C361.809 377.574 362.069 377.465 364 377C362.341 376.594 361.758 376.691 360 377z"/>
<path style="fill:#fce86c; stroke:none;" d="M144 377C145.506 377.683 146.315 377.826 148 378C146.494 377.317 145.685 377.174 144 377z"/>
<path style="fill:#eed542; stroke:none;" d="M148 377C153.707 379.395 161.846 378 168 378L211 378C205.293 375.605 197.154 377 191 377L148 377z"/>
<path style="fill:#fbf07e; stroke:none;" d="M211 377C212.248 377.685 212.548 377.749 214 378C212.752 377.315 212.452 377.251 211 377z"/>
<path style="fill:#ffffdb; stroke:none;" d="M144 378C149.951 380.497 158.58 379 165 379L197 379C203.239 379 209.988 379.777 216 378C209.234 376.375 200.094 378 193 378L144 378z"/>
<path style="fill:#f8f591; stroke:none;" d="M285 377C286.248 377.685 286.548 377.749 288 378C286.752 377.315 286.452 377.251 285 377z"/>
<path style="fill:#eed542; stroke:none;" d="M288 377C294.436 379.701 304.049 378 311 378L360 378C353.564 375.299 343.951 377 337 377L288 377z"/>
<path style="fill:#ffffe3; stroke:none;" d="M352 380L352 382L356 382L356 380L352 380z"/>
</svg>
